<?xml version="1.0" encoding="UTF-8"?>
<svg id="Capa_1" data-name="Capa 1" xmlns="http://www.w3.org/2000/svg" viewBox="0 0 121.93 25.49">
  <defs>
    <style>
      .cls-1 {
        fill: #231f20;
      }

      .cls-2 {
        fill: #76bc21;
      }
    </style>
  </defs>
  <path class="cls-2" d="M24.44,3.65c-.51-.83-1.15-1.54-1.93-2.11-5.96-4.28-14.16,1.02-12.66,8.23,1.57,7.69,13.65,7.31,12.92,15.72,4.83-1.73,9.06-5.29,12.03-9.27C45.79,1.51,29.43-4.48,24.44,3.65Z"/>
  <g>
    <path class="cls-1" d="M0,24.7V1.05h1.31v23.65H0Z"/>
    <path class="cls-1" d="M59.14,14.92c-1.79,1.83-3.88,1.95-5.48,1.95h-4.74v7.75h-1.31V1.05h6.06c3.81,0,7.4,1.6,7.4,7.95,0,2.66-.74,4.62-1.92,5.93ZM53.73,2.27h-4.81v13.43h4.81c1.06,0,2.85-.06,4.39-1.73.9-.96,1.6-2.69,1.6-4.9,0-5.8-3.27-6.79-5.99-6.79Z"/>
    <path class="cls-1" d="M66.06,24.63V.98h1.12v23.65h-1.12Z"/>
    <path class="cls-1" d="M82.3,24.63c-.29,0-.35-.06-.42-.13s-.13-.22-.13-.42v-2.05c-.93,1.6-2.72,2.79-5.38,2.72-3.49,0-4.9-2.4-4.9-4.74,0-.67.1-1.92.8-3.04,1.41-2.24,4.17-2.69,6.41-2.69,1.28,0,2.95.19,3.08.26v-1.47c0-1.44.06-2.66-.93-3.78-.67-.8-1.89-1.35-3.88-1.35-2.6.06-4.07,1.28-4.07,1.28l.19-1.28s1.41-1.06,4.07-1.06c2.15,0,3.62.61,4.55,1.6,1.09,1.19,1.22,2.4,1.22,4.58v11.57h-.61ZM81.76,15.5c-.19,0-1.41-.19-3.01-.19-2.37,0-4.87.51-5.74,2.79-.26.67-.32,1.31-.32,1.86,0,2.34,1.79,3.81,4.07,3.81.38,0,.96-.03,1.41-.13,2.18-.54,3.59-2.02,3.59-3.46v-4.68Z"/>
    <path class="cls-1" d="M97.71,24.7v-10.99c0-2.69-.13-5.64-4.61-5.64-1.47,0-2.37.48-2.98,1.03-1.15,1.06-1.6,2.72-1.6,4.2v11.41h-1.22V7.3h1.22v2.98c.32-1.38,1.92-3.27,4.71-3.27,1.83,0,3.62.42,4.68,1.96.9,1.25,1.03,2.79,1.03,4.68v11.06h-1.22Z"/>
    <path class="cls-1" d="M109.82,24.38s-1.06.38-2.05.38c-2.56,0-3.46-1.44-3.46-4.2v-12.27h-2.69l.13-.99h2.63l.13-3.56.99-.13v3.68h4.13l-.19.99h-3.94v12.14c0,1.6.42,3.27,2.4,3.27.99,0,1.99-.38,1.99-.38l-.06,1.06Z"/>
    <path class="cls-1" d="M120.65,23.29c-1.15,1.09-2.69,1.54-4.36,1.54-2.37,0-3.97-.74-4.87-1.25l-.19-1.41c.54.38,2.63,1.54,5,1.54,2.5,0,4.42-1.15,4.42-3.81,0-4.81-9.16-2.47-9.16-8.49,0-2.72,2.37-4.33,5.29-4.33,2.6,0,4.13.99,4.13.99l.13,1.22s-1.6-1.22-4.2-1.22-4.07,1.35-4.07,3.33c0,2.37,2.21,3.08,4.01,3.75,1.95.74,5.16,1.54,5.16,4.68,0,1.47-.48,2.66-1.28,3.46Z"/>
  </g>
</svg>