<?xml version="1.0" encoding="UTF-8"?>
<svg id="Capa_1" data-name="Capa 1" xmlns="http://www.w3.org/2000/svg" viewBox="0 0 114.98 79.36">
  <defs>
    <style>
      .cls-1 {
        fill: #231f20;
      }

      .cls-2 {
        fill: #76bc21;
      }
    </style>
  </defs>
  <path class="cls-2" d="M56.15,7.1c-.99-1.62-2.23-3-3.76-4.1-11.6-8.33-27.55,1.99-24.63,16.01,3.06,14.96,26.55,14.23,25.13,30.59,9.4-3.38,17.63-10.3,23.41-18.03C97.7,2.94,65.87-8.71,56.15,7.1Z"/>
  <g>
    <path class="cls-1" d="M0,79.26v-18.42h1.02v18.42H0Z"/>
    <path class="cls-1" d="M11.63,79.21v-18.42h.87v18.42h-.87Z"/>
    <path class="cls-1" d="M21.07,79.36c-4.09,0-5.57-2.7-5.57-6.77,0-3.69,1.42-7.11,5.57-7.11s5.37,3.47,5.37,7.06-1.87,6.81-5.37,6.81ZM21.07,66.25c-3.54,0-4.62,3.07-4.62,6.34,0,3.79,1.25,5.99,4.62,5.99,2.92,0,4.37-2.65,4.37-6.04,0-3.05-.72-6.29-4.37-6.29Z"/>
    <path class="cls-1" d="M32.3,79.26h-1.12l-4.22-13.55h.9l3.89,12.63,3.79-12.63h.87l-4.12,13.55Z"/>
    <path class="cls-1" d="M47.63,72.59h-9.49v.7c.07,1.7.7,5.14,5.17,5.19,2.55,0,3.84-1.15,3.84-1.15l-.15,1.05s-1.3.97-3.74.97c-5.67,0-6.09-4.77-6.09-6.87s.62-7.01,5.42-7.01,5.09,5.47,5.09,6.62c0,.35-.05.5-.05.5ZM42.59,66.25c-4.22-.05-4.44,4.89-4.44,5.62h8.54s.2-5.62-4.09-5.62Z"/>
    <path class="cls-1" d="M66.05,71.64c-1.4,1.42-3.02,1.52-4.27,1.52h-3.69v6.04h-1.02v-18.37h4.72c2.97,0,5.77,1.25,5.77,6.19,0,2.07-.57,3.59-1.5,4.62ZM61.84,61.78h-3.74v10.46h3.74c.82,0,2.22-.05,3.42-1.35.7-.75,1.25-2.1,1.25-3.82,0-4.52-2.55-5.29-4.67-5.29Z"/>
    <path class="cls-1" d="M71.45,79.21v-18.42h.87v18.42h-.87Z"/>
    <path class="cls-1" d="M84.1,79.21c-.22,0-.27-.05-.32-.1s-.1-.17-.1-.32v-1.6c-.72,1.25-2.12,2.17-4.19,2.12-2.72,0-3.82-1.87-3.82-3.69,0-.52.08-1.5.62-2.37,1.1-1.75,3.25-2.1,4.99-2.1,1,0,2.3.15,2.4.2v-1.15c0-1.12.05-2.07-.72-2.95-.52-.62-1.47-1.05-3.02-1.05-2.02.05-3.17,1-3.17,1l.15-1s1.1-.82,3.17-.82c1.67,0,2.82.47,3.54,1.25.85.92.95,1.87.95,3.57v9.01h-.47ZM83.68,72.09c-.15,0-1.1-.15-2.35-.15-1.85,0-3.79.4-4.47,2.17-.2.52-.25,1.02-.25,1.45,0,1.82,1.4,2.97,3.17,2.97.3,0,.75-.03,1.1-.1,1.7-.42,2.8-1.57,2.8-2.7v-3.64Z"/>
    <path class="cls-1" d="M96.11,79.26v-8.56c0-2.1-.1-4.39-3.59-4.39-1.15,0-1.85.37-2.32.8-.9.82-1.25,2.12-1.25,3.27v8.89h-.95v-13.55h.95v2.32c.25-1.07,1.5-2.55,3.67-2.55,1.42,0,2.82.32,3.64,1.52.7.97.8,2.17.8,3.64v8.61h-.95Z"/>
    <path class="cls-1" d="M105.55,79.01s-.82.3-1.6.3c-2,0-2.7-1.12-2.7-3.27v-9.56h-2.1l.1-.77h2.05l.1-2.77.77-.1v2.87h3.22l-.15.77h-3.07v9.46c0,1.25.32,2.55,1.87,2.55.77,0,1.55-.3,1.55-.3l-.05.82Z"/>
    <path class="cls-1" d="M113.98,78.16c-.9.85-2.1,1.2-3.39,1.2-1.85,0-3.1-.57-3.79-.97l-.15-1.1c.42.3,2.05,1.2,3.89,1.2,1.95,0,3.44-.9,3.44-2.97,0-3.74-7.14-1.92-7.14-6.62,0-2.12,1.85-3.37,4.12-3.37,2.02,0,3.22.77,3.22.77l.1.95s-1.25-.95-3.27-.95-3.17,1.05-3.17,2.6c0,1.85,1.72,2.4,3.12,2.92,1.52.57,4.02,1.2,4.02,3.64,0,1.15-.38,2.07-1,2.7Z"/>
  </g>
</svg>